<svg width="302" height="80" viewBox="0 0 302 80" fill="none" xmlns="http://www.w3.org/2000/svg">
  <g clip-path="url(#clip0_1_2)">
    <path d="M76.9249 33.8672C75.3887 33.8672 73.8794 34.1755 72.4688 34.7546C73.7041 32.5513 74.0318 30.3242 73.0884 28.6138C72.178 26.9692 70.158 26.2017 68.5033 26.002C65.9473 25.703 63.1367 26.5261 61.1343 28.5327C60.2148 29.4513 59.5459 30.5571 59.0874 31.7826C57.6094 28.4037 54.1905 26.002 50.1631 26.002C43.5293 26.002 38.1367 31.3945 38.1367 38.0284C38.1367 38.7798 38.1865 39.5225 38.2861 40.2481C33.5435 40.5061 29.9365 44.8037 30.0996 49.5977C30.2183 52.7344 32.0747 55.4488 34.8027 56.8564C37.2856 58.1374 40.5732 58.3344 44.1187 57.3813C47.0083 56.5894 49.7969 54.994 53.1602 51.8691C55.8008 49.4398 59.2759 46.9339 63.6807 45.4608C67.7827 44.096 71.9321 43.9052 75.4287 44.9164C78.3848 45.7876 80.4365 47.5454 81.081 49.8711C81.5288 51.4481 81.1919 53.0454 80.1528 54.413C79.4175 55.3867 78.4068 56.1814 77.2852 56.7656C77.4761 56.2393 77.5845 55.6782 77.5845 55.0894C77.5845 52.3018 75.3222 50.0396 72.5347 50.0396C69.7471 50.0396 67.4849 52.3018 67.4849 55.0894C67.4849 57.877 69.7471 60.1392 72.5347 60.1392C72.5693 60.1392 72.6038 60.1392 72.6382 60.1392C73.4043 63.4935 75.7607 66.1917 79.0312 67.0825C82.6704 68.0867 86.6616 66.765 89.1631 63.9082C90.2634 62.682 91.0728 61.1902 91.5166 59.5171C91.7749 58.5191 91.9077 57.4709 91.9077 56.3857C91.9077 49.469 86.2231 43.7842 79.3063 43.7842C79.2358 43.7842 79.1653 43.7843 79.0949 43.7844C78.3779 43.7948 77.6527 43.8408 76.9249 43.9222C73.3682 37.996 77.9131 33.8672 76.9249 33.8672Z" fill="url(#paint0_linear_1_2)"/>
    <path d="M91.9077 56.3857C91.9077 57.4709 91.7749 58.5191 91.5166 59.5171C91.0728 61.1902 90.2634 62.682 89.1631 63.9082C86.6616 66.765 82.6704 68.0867 79.0312 67.0825C75.7607 66.1917 73.4043 63.4935 72.6382 60.1392C72.6038 60.1392 72.5693 60.1392 72.5347 60.1392C69.7471 60.1392 67.4849 57.877 67.4849 55.0894C67.4849 52.3018 69.7471 50.0396 72.5347 50.0396C75.3222 50.0396 77.5845 52.3018 77.5845 55.0894C77.5845 55.6782 77.4761 56.2393 77.2852 56.7656C78.4068 56.1814 79.4175 55.3867 80.1528 54.413C81.1919 53.0454 81.5288 51.4481 81.081 49.8711C80.4365 47.5454 78.3848 45.7876 75.4287 44.9164C71.9321 43.9052 67.7827 44.096 63.6807 45.4608C59.2759 46.9339 55.8008 49.4398 53.1602 51.8691C49.7969 54.994 47.0083 56.5894 44.1187 57.3813C40.5732 58.3344 37.2856 58.1374 34.8027 56.8564C32.0747 55.4488 30.2183 52.7344 30.0996 49.5977C29.9365 44.8037 33.5435 40.5061 38.2861 40.2481C38.1865 39.5225 38.1367 38.7798 38.1367 38.0284C38.1367 31.3945 43.5293 26.002 50.1631 26.002C54.1905 26.002 57.6094 28.4037 59.0874 31.7826C59.5459 30.5571 60.2148 29.4513 61.1343 28.5327C63.1367 26.5261 65.9473 25.703 68.5033 26.002C70.158 26.2017 72.178 26.9692 73.0884 28.6138C74.0318 30.3242 73.7041 32.5513 72.4688 34.7546C73.8794 34.1755 75.3887 33.8672 76.9249 33.8672C77.9131 33.8672 73.3682 37.996 76.9249 43.9222C77.6527 43.8408 78.3779 43.7948 79.0949 43.7844C79.1653 43.7843 79.2358 43.7842 79.3063 43.7842C86.2231 43.7842 91.9077 49.469 91.9077 56.3857Z" fill="#1874CD"/>
    <path d="M72.4687 34.7546C73.8794 34.1755 75.3887 33.8672 76.9249 33.8672C77.9131 33.8672 73.3682 37.996 76.9249 43.9222C77.6527 43.8408 78.3779 43.7948 79.0949 43.7844C79.1653 43.7843 79.2358 43.7842 79.3062 43.7842C86.223 43.7842 91.9077 49.469 91.9077 56.3857C91.9077 57.4709 91.7749 58.5191 91.5166 59.5171C91.0728 61.1902 90.2634 62.682 89.1631 63.9082C86.6616 66.765 82.6704 68.0867 79.0312 67.0825C75.7607 66.1917 73.4043 63.4935 72.6382 60.1392" stroke="#65C6F5" stroke-width="1.5" stroke-linecap="round" stroke-linejoin="round"/>
    <path d="M72.6382 60.1392C72.6038 60.1392 72.5693 60.1392 72.5347 60.1392C69.7471 60.1392 67.4849 57.877 67.4849 55.0894C67.4849 52.3018 69.7471 50.0396 72.5347 50.0396C75.3222 50.0396 77.5845 52.3018 77.5845 55.0894C77.5845 55.6782 77.4761 56.2393 77.2852 56.7656" stroke="#65C6F5" stroke-width="1.5" stroke-linecap="round" stroke-linejoin="round"/>
    <path d="M77.2852 56.7656C78.4068 56.1814 79.4175 55.3867 80.1528 54.413C81.1919 53.0454 81.5288 51.4481 81.081 49.8711C80.4365 47.5454 78.3848 45.7876 75.4287 44.9164C71.9321 43.9052 67.7827 44.096 63.6807 45.4608C59.2759 46.9339 55.8008 49.4397 53.1602 51.8691C49.7969 54.994 47.0083 56.5894 44.1187 57.3813C40.5732 58.3344 37.2856 58.1374 34.8027 56.8564C32.0747 55.4488 30.2183 52.7344 30.0996 49.5977C29.9365 44.8037 33.5435 40.5061 38.2861 40.2481C38.1865 39.5225 38.1367 38.7798 38.1367 38.0284C38.1367 31.3945 43.5293 26.002 50.1631 26.002C54.1905 26.002 57.6094 28.4037 59.0874 31.7826C59.5459 30.5571 60.2148 29.4513 61.1343 28.5327C63.1367 26.5261 65.9473 25.703 68.5033 26.002C70.158 26.2017 72.178 26.9692 73.0884 28.6138C74.0318 30.3242 73.7041 32.5513 72.4687 34.7546" stroke="#65C6F5" stroke-width="1.5" stroke-linecap="round" stroke-linejoin="round"/>
    <path d="M72.6381 60.1392C72.6037 60.1392 72.5693 60.1392 72.5346 60.1392C69.7471 60.1392 67.4849 57.877 67.4849 55.0894C67.4849 52.3018 69.7471 50.0396 72.5346 50.0396C75.3222 50.0396 77.5845 52.3018 77.5845 55.0894C77.5845 55.6782 77.4761 56.2393 77.2852 56.7656" stroke="#65C6F5" stroke-width="0.75" stroke-linecap="round" stroke-linejoin="round"/>
    <path d="M77.2852 56.7656C78.4068 56.1814 79.4175 55.3867 80.1528 54.413C81.1919 53.0454 81.5288 51.4481 81.081 49.8711C80.4365 47.5454 78.3848 45.7876 75.4287 44.9164C71.9321 43.9052 67.7827 44.096 63.6807 45.4608C59.2759 46.9339 55.8008 49.4398 53.1602 51.8691C49.7969 54.994 47.0083 56.5894 44.1187 57.3813C40.5732 58.3344 37.2856 58.1374 34.8027 56.8564C32.0747 55.4488 30.2183 52.7344 30.0996 49.5977C29.9365 44.8037 33.5435 40.5061 38.2861 40.2481C38.1865 39.5225 38.1367 38.7798 38.1367 38.0284C38.1367 31.3945 43.5293 26.002 50.1631 26.002C54.1905 26.002 57.6094 28.4037 59.0874 31.7826C59.5459 30.5571 60.2148 29.4513 61.1343 28.5327C63.1367 26.5261 65.9473 25.703 68.5033 26.002C70.158 26.2017 72.178 26.9692 73.0884 28.6138C74.0318 30.3242 73.7041 32.5513 72.4688 34.7546" stroke="#85D6FF" stroke-width="0.75" stroke-linecap="round" stroke-linejoin="round"/>
    <g filter="url(#filter0_d_1_2)">
      <path d="M121.07 33.6V49H118.238V33.6H121.07ZM125.707 39.364V41.82H117.631V39.364H125.707ZM125.812 33.6V36.056H117.631V33.6H125.812ZM132.639 33.6V49H129.807V33.6H132.639ZM145.432 46.544V49H135.428V46.544H145.432ZM135.848 33.6V49H133.016V33.6H135.848ZM142.32 40.04V42.384H136.352V40.04H142.32ZM145.432 33.6V36.056H135.428V33.6H145.432ZM155.906 49.168C154.646 49.168 153.531 48.9333 152.562 48.464C151.592 47.984 150.839 47.3267 150.302 46.488C149.764 45.64 149.495 44.6747 149.495 43.612C149.495 42.568 149.754 41.6213 150.274 40.768C150.793 39.9147 151.499 39.2387 152.394 38.74C153.288 38.2413 154.292 37.992 155.402 37.992C156.493 37.992 157.478 38.2347 158.354 38.72C159.23 39.2053 159.918 39.8813 160.41 40.74C160.911 41.5893 161.162 42.5453 161.162 43.612C161.162 43.724 161.162 43.8453 161.162 43.976C161.152 44.1067 161.143 44.228 161.134 44.34H152.051V42.468H159.43L158.13 43.192C158.139 42.6 158.007 42.076 157.731 41.624C157.454 41.1627 157.077 40.8027 156.598 40.544C156.118 40.2853 155.57 40.156 154.954 40.156C154.336 40.156 153.785 40.2853 153.298 40.544C152.818 40.8027 152.436 41.1673 152.15 41.638C151.872 42.0993 151.734 42.6233 151.734 43.22V43.752C151.734 44.368 151.891 44.9107 152.206 45.388C152.529 45.856 152.974 46.2147 153.54 46.46C154.106 46.7053 154.758 46.828 155.498 46.828C156.108 46.828 156.652 46.7427 157.129 46.572C157.616 46.4013 158.056 46.1427 158.446 45.8L159.976 47.62C159.46 48.12 158.82 48.5053 158.058 48.772C157.296 49.0293 156.446 49.158 155.51 49.168H155.906ZM173.155 38.16L168.807 49H165.967L161.619 38.16H164.675L167.891 46.628H166.883L170.099 38.16H173.155ZM178.982 49.168C177.851 49.168 176.826 48.9147 175.906 48.408C174.986 47.9013 174.249 47.214 173.694 46.348C173.147 45.4733 172.874 44.4613 172.874 43.304C172.874 42.148 173.147 41.1307 173.694 40.256C174.249 39.3813 174.986 38.6987 175.906 38.208C176.826 37.7173 177.855 37.472 178.994 37.472C179.951 37.472 180.809 37.6427 181.57 37.984C182.343 38.3253 182.962 38.8333 183.426 39.504C183.899 40.1653 184.142 40.936 184.142 41.82C184.142 42.7133 183.899 43.4887 183.414 44.148C182.929 44.8073 182.303 45.3153 181.534 45.668C180.766 46.0113 179.926 46.184 179.014 46.188L178.618 44.896C179.901 44.896 180.978 44.624 181.85 44.08C182.722 43.5267 183.157 42.7653 183.157 41.796C183.157 40.92 182.826 40.24 182.165 39.756C181.514 39.272 180.663 39.028 179.614 39.028C178.482 39.028 177.525 39.3253 176.742 39.92C175.959 40.5053 175.567 41.3227 175.567 42.372C175.567 43.4213 175.959 44.2387 176.742 44.824C177.525 45.4093 178.49 45.708 179.634 45.72L179.718 47.328C178.593 47.328 177.572 47.1013 176.654 46.648C175.745 46.1853 175.035 45.548 174.525 44.732C174.014 43.9067 173.759 43.0173 173.759 42.056C173.759 40.9653 174.03 40.0013 174.573 39.168C175.115 38.3347 175.857 37.688 176.798 37.228C177.738 36.7587 178.79 36.524 179.954 36.524C181.099 36.524 182.131 36.7633 183.049 37.242C183.978 37.7113 184.7 38.3627 185.219 39.196C185.737 40.0293 185.996 40.9893 185.996 42.076C185.996 43.1627 185.737 44.128 185.219 44.972C184.7 45.816 183.978 46.4733 183.049 46.964C182.131 47.444 181.099 47.684 179.954 47.684C179.662 47.684 179.366 47.6653 179.066 47.628C178.774 47.5907 178.486 47.5347 178.202 47.46L178.706 46.236C179.017 46.3187 179.343 46.3653 179.682 46.376C180.022 46.3867 180.33 46.392 180.606 46.392C181.514 46.392 182.322 46.2093 183.033 45.844C183.743 45.4693 184.302 44.9653 184.71 44.332C185.117 43.6987 185.321 42.9747 185.321 42.152C185.321 41.3293 185.113 40.6053 184.698 39.98C184.282 39.3547 183.71 38.8707 182.981 38.528C182.261 38.1853 181.462 38.0093 180.582 38.008C179.682 38.008 178.863 38.1947 178.126 38.568C177.398 38.932 176.826 39.4267 176.41 40.052C176.002 40.6773 175.799 41.388 175.799 42.184C175.799 42.9893 176.002 43.7 176.41 44.316C176.818 44.932 177.39 45.4173 178.126 45.764C178.862 46.1107 179.685 46.284 180.594 46.284C180.791 46.284 180.99 46.2747 181.194 46.256C181.397 46.228 181.598 46.1907 181.795 46.144L182.374 47.908C182.065 47.9827 181.749 48.0387 181.426 48.076C181.103 48.1133 180.775 48.132 180.442 48.132C179.395 48.132 178.449 47.9173 177.602 47.488C176.754 47.0587 176.09 46.4733 175.607 45.732C175.133 44.9813 174.897 44.1347 174.897 43.176C174.897 42.2173 175.133 41.3573 175.607 40.596C176.09 39.8347 176.758 39.2307 177.609 38.784C178.467 38.3373 179.407 38.112 180.429 38.1C181.433 38.0973 182.303 38.304 183.041 38.728C183.778 39.152 184.347 39.7347 184.746 40.472C185.154 41.2 185.357 42.0173 185.357 42.932C185.357 43.7933 185.133 44.5667 184.686 45.248C184.238 45.9293 183.621 46.4653 182.834 46.852C182.055 47.2387 181.174 47.432 180.19 47.432C179.857 47.432 179.527 47.3993 179.199 47.336C178.871 47.2727 178.561 47.1893 178.273 47.088L177.61 48.62C177.994 48.7733 178.382 48.8867 178.774 48.96C179.177 49.0333 179.582 49.0693 179.99 49.068L178.982 49.168ZM189.75 33.6V49H186.918V33.6H189.75ZM199.736 49.168C198.476 49.168 197.361 48.9333 196.392 48.464C195.422 47.984 194.669 47.3267 194.132 46.488C193.594 45.64 193.324 44.6747 193.324 43.612C193.324 42.568 193.584 41.6213 194.104 40.768C194.623 39.9147 195.329 39.2387 196.224 38.74C197.118 38.2413 198.122 37.992 199.232 37.992C200.323 37.992 201.308 38.2347 202.184 38.72C203.06 39.2053 203.748 39.8813 204.24 40.74C204.741 41.5893 204.992 42.5453 204.992 43.612C204.992 43.724 204.992 43.8453 204.992 43.976C204.982 44.1067 204.973 44.228 204.964 44.34H195.881V42.468H203.26L201.96 43.192C201.969 42.6 201.836 42.076 201.56 41.624C201.284 41.1627 200.906 40.8027 200.428 40.544C199.948 40.2853 199.4 40.156 198.784 40.156C198.166 40.156 197.615 40.2853 197.128 40.544C196.648 40.8027 196.266 41.1673 195.98 41.638C195.702 42.0993 195.564 42.6233 195.564 43.22V43.752C195.564 44.368 195.721 44.9107 196.036 45.388C196.359 45.856 196.804 46.2147 197.37 46.46C197.936 46.7053 198.588 46.828 199.328 46.828C199.938 46.828 200.482 46.7427 200.959 46.572C201.446 46.4013 201.886 46.1427 202.276 45.8L203.806 47.62C203.29 48.12 202.65 48.5053 201.888 48.772C201.126 49.0293 200.276 49.158 199.34 49.168H199.736Z" fill="#F5F5F5"/>
    </g>
    <g filter="url(#filter1_d_1_2)">
      <path d="M115.092 53.6H117.924V61.676H121.924V53.6H124.756V69H121.924V63.924H117.924V69H115.092V53.6ZM127.029 58.16H129.861V69H127.029V58.16ZM128.445 56.676C127.952 56.676 127.541 56.5173 127.213 56.2C126.885 55.8733 126.721 55.4813 126.721 55.024C126.721 54.5573 126.885 54.1747 127.213 53.876C127.541 53.568 127.952 53.414 128.445 53.414C128.937 53.414 129.345 53.5627 129.669 53.86C129.992 54.148 130.153 54.5213 130.153 54.98C130.153 55.4573 129.992 55.8587 129.669 56.184C129.356 56.512 128.948 56.676 128.445 56.676ZM139.455 58.16V60.388L133.823 60.148V58.16H139.455ZM135.175 55.534V69H132.343V55.534H135.175ZM137.587 62.342V64.486H133.735V62.342H137.587ZM147.835 66.544V69H137.831V66.544H147.835ZM138.251 53.6V69H135.419V53.6H138.251ZM144.723 60.04V62.384H138.755V60.04H144.723ZM147.835 53.6V56.056H137.831V53.6H147.835ZM150.308 53.6H153.14V69H150.308V53.6ZM155.413 53.6H158.245V69H155.413V53.6ZM168.65 69.168C167.372 69.168 166.236 68.9267 165.24 68.446C164.254 67.9653 163.48 67.3027 162.92 66.46C162.369 65.6173 162.094 64.652 162.094 63.564C162.094 62.476 162.369 61.5107 162.92 60.668C163.48 59.8253 164.254 59.1627 165.24 58.682C166.236 58.2013 167.372 57.96 168.65 57.96C169.929 57.96 171.055 58.2013 172.029 58.682C173.011 59.1627 173.776 59.8253 174.322 60.668C174.878 61.5107 175.156 62.476 175.156 63.564C175.156 64.652 174.878 65.6173 174.322 66.46C173.776 67.3027 173.011 67.9653 172.029 68.446C171.055 68.9267 169.929 69.168 168.65 69.168ZM168.65 66.656C169.408 66.656 170.047 66.4933 170.568 66.168C171.088 65.8427 171.477 65.4093 171.734 64.866C171.999 64.3133 172.132 63.6747 172.132 62.936C172.132 62.1973 171.999 61.5587 171.734 61.006C171.477 60.4533 171.088 60.02 170.568 59.704C170.047 59.3787 169.408 59.216 168.65 59.216C167.901 59.216 167.262 59.3787 166.732 59.704C166.21 60.02 165.812 60.4533 165.538 61.006C165.273 61.5587 165.14 62.1973 165.14 62.936C165.14 63.6747 165.273 64.3133 165.538 64.866C165.812 65.4093 166.21 65.8427 166.732 66.168C167.262 66.4933 167.901 66.656 168.65 66.656ZM182.631 69.168C181.353 69.168 180.217 68.9267 179.221 68.446C178.235 67.9653 177.461 67.3027 176.901 66.46C176.35 65.6173 176.075 64.652 176.075 63.564C176.075 62.476 176.35 61.5107 176.901 60.668C177.461 59.8253 178.235 59.1627 179.221 58.682C180.217 58.2013 181.353 57.96 182.631 57.96C183.91 57.96 185.036 58.2013 186.01 58.682C186.992 59.1627 187.757 59.8253 188.303 60.668C188.859 61.5107 189.137 62.476 189.137 63.564C189.137 64.652 188.859 65.6173 188.303 66.46C187.757 67.3027 186.992 67.9653 186.01 68.446C185.036 68.9267 183.91 69.168 182.631 69.168ZM182.631 66.656C183.389 66.656 184.029 66.4933 184.549 66.168C185.069 65.8427 185.458 65.4093 185.715 64.866C185.981 64.3133 186.113 63.6747 186.113 62.936C186.113 62.1973 185.981 61.5587 185.715 61.006C185.458 60.4533 185.069 60.02 184.549 59.704C184.029 59.3787 183.389 59.216 182.631 59.216C181.882 59.216 181.243 59.3787 180.713 59.704C180.191 60.02 179.793 60.4533 179.519 61.006C179.254 61.5587 179.121 62.1973 179.121 62.936C179.121 63.6747 179.254 64.3133 179.519 64.866C179.793 65.4093 180.191 65.8427 180.713 66.168C181.243 66.4933 181.882 66.656 182.631 66.656ZM192.177 58.16H195.009V64.04C195.009 64.7493 195.166 65.3133 195.481 65.726C195.795 66.1293 196.267 66.332 196.897 66.332C197.657 66.332 198.277 66.054 198.757 65.498C199.237 64.9327 199.477 64.1387 199.477 63.116V58.16H202.309V69H199.477V66.614H199.729C199.386 67.414 198.859 68.026 198.149 68.446C197.438 68.866 196.621 69.076 195.697 69.076C194.409 69.076 193.413 68.7027 192.709 67.956C192.015 67.2 191.667 66.1013 191.667 64.654V58.16H192.177ZM204.584 58.16H207.416V60.546H207.164C207.507 59.746 208.034 59.1347 208.744 58.714C209.455 58.294 210.271 58.084 211.196 58.084C212.484 58.084 213.479 58.4573 214.184 59.204C214.889 59.9507 215.242 61.05 215.242 62.498V69H212.41V63.12C212.41 62.41 212.249 61.8413 211.924 61.428C211.601 61.014 211.128 60.8067 210.506 60.8067C209.756 60.8067 209.144 61.0847 208.672 61.64C208.201 62.1853 207.965 62.9793 207.965 64.002V69H205.133V58.16H204.584ZM223.835 58.16V60.388H217.143V58.16H223.835ZM218.759 55.124V69H215.927V55.124H218.759ZM232.575 69.168C231.315 69.168 230.201 68.9347 229.231 68.464C228.261 67.9933 227.509 67.3347 226.971 66.488C226.433 65.64 226.163 64.6747 226.163 63.612C226.163 62.5493 226.424 61.584 226.943 60.716C227.463 59.848 228.169 59.172 229.063 58.688C229.957 58.1947 230.961 57.948 232.071 57.948C233.163 57.948 234.147 58.1907 235.023 58.676C235.899 59.1613 236.587 59.8373 237.079 60.696C237.581 61.5453 237.831 62.5013 237.831 63.568C237.831 63.68 237.831 63.8013 237.831 63.932C237.821 64.0627 237.813 64.184 237.803 64.296H229.079V62.424H236.099L234.799 63.148C234.809 62.556 234.676 62.032 234.399 61.58C234.123 61.1187 233.745 60.7587 233.267 60.5C232.787 60.2413 232.239 60.112 231.623 60.112C231.005 60.112 230.455 60.2413 229.967 60.5C229.487 60.7587 229.105 61.1233 228.819 61.594C228.541 62.0553 228.403 62.5793 228.403 63.176V63.708C228.403 64.324 228.561 64.8667 228.875 65.344C229.199 65.812 229.643 66.1707 230.209 66.416C230.775 66.6613 231.427 66.784 232.167 66.784C232.777 66.784 233.321 66.6987 233.799 66.528C234.285 66.3573 234.725 66.0987 235.115 65.756L236.645 67.576C236.129 68.076 235.489 68.4613 234.727 68.728C233.965 68.9853 233.115 69.1147 232.179 69.124L232.575 69.168ZM239.945 58.16H242.777V60.63H243.029C243.215 59.83 243.596 59.2187 244.171 58.798C244.755 58.3773 245.404 58.168 246.117 58.17C246.308 58.17 246.504 58.184 246.707 58.212C246.92 58.2307 247.091 58.2587 247.221 58.296V60.944C247.072 60.888 246.864 60.8413 246.597 60.804C246.34 60.7573 246.079 60.734 245.813 60.734C245.128 60.734 244.533 60.8947 244.025 61.216C243.517 61.528 243.12 61.958 242.833 62.506C242.556 63.0447 242.417 63.6553 242.417 64.338V69H239.585V58.16H239.945ZM255.517 69.168C254.239 69.168 253.102 68.9267 252.107 68.446C251.121 67.9653 250.347 67.3027 249.787 66.46C249.235 65.6173 248.96 64.652 248.96 63.564C248.96 62.476 249.235 61.5107 249.787 60.668C250.347 59.8253 251.121 59.1627 252.107 58.682C253.102 58.2013 254.239 57.96 255.517 57.96C256.795 57.96 257.921 58.2013 258.895 58.682C259.878 59.1627 260.643 59.8253 261.188 60.668C261.744 61.5107 262.023 62.476 262.023 63.564C262.023 64.652 261.744 65.6173 261.188 66.46C260.643 67.3027 259.878 67.9653 258.895 68.446C257.921 68.9267 256.795 69.168 255.517 69.168ZM255.517 66.656C256.275 66.656 256.914 66.4933 257.435 66.168C257.955 65.8427 258.343 65.4093 258.601 64.866C258.867 64.3133 259 63.6747 259 62.936C259 62.1973 258.867 61.5587 258.601 61.006C258.343 60.4533 257.955 60.02 257.435 59.704C256.914 59.3787 256.275 59.216 255.517 59.216C254.768 59.216 254.129 59.3787 253.599 59.704C253.077 60.02 252.679 60.4533 252.405 61.006C252.14 61.5587 252.007 62.1973 252.007 62.936C252.007 63.6747 252.14 64.3133 252.405 64.866C252.679 65.4093 253.077 65.8427 253.599 66.168C254.129 66.4933 254.768 66.656 255.517 66.656ZM264.553 58.16H267.385V69H264.553V58.16ZM265.969 56.676C265.477 56.676 265.066 56.5173 264.737 56.2C264.409 55.8733 264.245 55.4813 264.245 55.024C264.245 54.5573 264.409 54.1747 264.737 53.876C265.066 53.568 265.477 53.414 265.969 53.414C266.461 53.414 266.869 53.5627 267.193 53.86C267.517 54.148 267.677 54.5213 267.677 54.98C267.677 55.4573 267.517 55.8587 267.193 56.184C266.88 56.512 266.472 56.676 265.969 56.676ZM277.347 69.168C276.069 69.168 274.932 68.9267 273.937 68.446C272.951 67.9653 272.177 67.3027 271.617 66.46C271.065 65.6173 270.79 64.652 270.79 63.564C270.79 62.476 271.065 61.5107 271.617 60.668C272.177 59.8253 272.951 59.1627 273.937 58.682C274.932 58.2013 276.069 57.96 277.347 57.96C278.625 57.96 279.751 58.2013 280.725 58.682C281.708 59.1627 282.473 59.8253 283.018 60.668C283.574 61.5107 283.853 62.476 283.853 63.564C283.853 64.652 283.574 65.6173 283.018 66.46C282.473 67.3027 281.708 67.9653 280.725 68.446C279.751 68.9267 278.625 69.168 277.347 69.168ZM277.347 66.656C278.105 66.656 278.744 66.4933 279.265 66.168C279.785 65.8427 280.173 65.4093 280.431 64.866C280.697 64.3133 280.83 63.6747 280.83 62.936C280.83 62.1973 280.697 61.5587 280.431 61.006C280.173 60.4533 279.785 60.02 279.265 59.704C278.744 59.3787 278.105 59.216 277.347 59.216C276.598 59.216 275.959 59.3787 275.429 59.704C274.907 60.02 274.509 60.4533 274.235 61.006C273.97 61.5587 273.837 62.1973 273.837 62.936C273.837 63.6747 273.97 64.3133 274.235 64.866C274.509 65.4093 274.907 65.8427 275.429 66.168C275.959 66.4933 276.598 66.656 277.347 66.656ZM286.383 58.16H289.215V60.63H289.467C289.653 59.83 290.033 59.2187 290.608 58.798C291.193 58.3773 291.841 58.168 292.555 58.17C292.745 58.17 292.941 58.184 293.145 58.212C293.357 58.2307 293.528 58.2587 293.659 58.296V60.944C293.509 60.888 293.301 60.8413 293.035 60.804C292.777 60.7573 292.517 60.734 292.251 60.734C291.565 60.734 290.97 60.8947 290.463 61.216C289.955 61.528 289.557 61.958 289.271 62.506C288.993 63.0447 288.855 63.6553 288.855 64.338V69H286.023V58.16H286.383ZM295.291 53.6H298.123V62.252C298.123 62.9613 298.275 63.4973 298.581 63.86C298.895 64.2227 299.364 64.404 299.985 64.404C300.605 64.404 301.149 64.184 301.617 63.744C302.085 63.304 302.319 62.712 302.319 61.968H304.951C304.951 62.768 304.756 63.4973 304.367 64.138C303.987 64.7693 303.453 65.2733 302.763 65.65C302.084 66.018 301.295 66.202 300.395 66.202C298.911 66.202 297.768 65.7773 296.967 64.928C296.174 64.0693 295.778 62.8667 295.778 61.32V53.6H295.291Z" fill="#DDF0FF"/>
    </g>
    <circle cx="72.5" cy="55" r="5" fill="#1874CD"/>
    <circle cx="72" cy="55" r="1.5" fill="white"/>
  </g>
  <defs>
    <filter id="filter0_d_1_2" x="114.238" y="33.6" width="92.758" height="19.5679" filterUnits="userSpaceOnUse" color-interpolation-filters="sRGB">
      <feFlood flood-opacity="0" result="BackgroundImageFix"/>
      <feColorMatrix in="SourceAlpha" type="matrix" values="0 0 0 0 0 0 0 0 0 0 0 0 0 0 0 0 0 0 127 0" result="hardAlpha"/>
      <feOffset dy="1"/>
      <feGaussianBlur stdDeviation="2"/>
      <feComposite in2="hardAlpha" operator="out"/>
      <feColorMatrix type="matrix" values="0 0 0 0 0 0 0 0 0 0 0 0 0 0 0 0 0 0 0.25 0"/>
      <feBlend mode="normal" in2="BackgroundImageFix" result="effect1_dropShadow_1_2"/>
      <feBlend mode="normal" in="SourceGraphic" in2="effect1_dropShadow_1_2" result="shape"/>
    </filter>
    <filter id="filter1_d_1_2" x="109.092" y="53.414" width="201.859" height="19.7539" filterUnits="userSpaceOnUse" color-interpolation-filters="sRGB">
      <feFlood flood-opacity="0" result="BackgroundImageFix"/>
      <feColorMatrix in="SourceAlpha" type="matrix" values="0 0 0 0 0 0 0 0 0 0 0 0 0 0 0 0 0 0 127 0" result="hardAlpha"/>
      <feOffset dy="1"/>
      <feGaussianBlur stdDeviation="3"/>
      <feComposite in2="hardAlpha" operator="out"/>
      <feColorMatrix type="matrix" values="0 0 0 0 0 0 0 0 0 0 0 0 0 0 0 0 0 0 0.25 0"/>
      <feBlend mode="normal" in2="BackgroundImageFix" result="effect1_dropShadow_1_2"/>
      <feBlend mode="normal" in="SourceGraphic" in2="effect1_dropShadow_1_2" result="shape"/>
    </filter>
    <linearGradient id="paint0_linear_1_2" x1="61" y1="26" x2="61" y2="67" gradientUnits="userSpaceOnUse">
      <stop stop-color="#65C6F5"/>
      <stop offset="1" stop-color="#024EB3"/>
    </linearGradient>
    <clipPath id="clip0_1_2">
      <rect width="302" height="80" fill="white"/>
    </clipPath>
  </defs>
</svg>